<?xml version="1.0" encoding="UTF-8" standalone="no"?>
<!-- Created with Inkscape (http://www.inkscape.org/) -->

<svg
   xmlns:dc="http://purl.org/dc/elements/1.1/"
   xmlns:cc="http://creativecommons.org/ns#"
   xmlns:rdf="http://www.w3.org/1999/02/22-rdf-syntax-ns#"
   xmlns:svg="http://www.w3.org/2000/svg"
   xmlns="http://www.w3.org/2000/svg"
   xmlns:sodipodi="http://sodipodi.sourceforge.net/DTD/sodipodi-0.dtd"
   xmlns:inkscape="http://www.inkscape.org/namespaces/inkscape"
   width="203.39212mm"
   height="97.820641mm"
   viewBox="0 0 203.39212 97.820641"
   version="1.1"
   id="svg3724"
   sodipodi:docname="RSS2.svg"
   inkscape:version="0.92.5 (2060ec1f9f, 2020-04-08)"
   inkscape:export-filename="/home/metienne/Pictures/RSS2.png"
   inkscape:export-xdpi="96"
   inkscape:export-ydpi="96">
  <defs
     id="defs3718" />
  <sodipodi:namedview
     id="base"
     pagecolor="#ffffff"
     bordercolor="#666666"
     borderopacity="1.0"
     inkscape:pageopacity="0.0"
     inkscape:pageshadow="2"
     inkscape:zoom="0.7"
     inkscape:cx="854.16225"
     inkscape:cy="398.23849"
     inkscape:document-units="mm"
     inkscape:current-layer="layer1"
     showgrid="false"
     fit-margin-top="0"
     fit-margin-left="0"
     fit-margin-right="0"
     fit-margin-bottom="0"
     inkscape:window-width="1848"
     inkscape:window-height="1015"
     inkscape:window-x="72"
     inkscape:window-y="28"
     inkscape:window-maximized="1" />
  <metadata
     id="metadata3721">
    <rdf:RDF>
      <cc:Work
         rdf:about="">
        <dc:format>image/svg+xml</dc:format>
        <dc:type
           rdf:resource="http://purl.org/dc/dcmitype/StillImage" />
        <dc:title></dc:title>
      </cc:Work>
    </rdf:RDF>
  </metadata>
  <g
     inkscape:label="Layer 1"
     inkscape:groupmode="layer"
     id="layer1"
     transform="translate(-20.579754,-128.08566)">
    <rect
       id="rect4531"
       width="203.39212"
       height="97.820641"
       x="20.937267"
       y="127.85908"
       style="opacity:0.075;fill:#ff0000;fill-opacity:0.43867924;stroke-width:0.32077962" />
    <path
       style="opacity:0.36199999;fill:#a7933a;fill-opacity:1;stroke-width:0.99999994"
       d="M 396.48438 22.222656 A 142.93658 122.22845 0 0 0 303.02148 52.171875 A 110.6117 97.479721 0 0 0 231.83008 29.294922 A 110.6117 97.479721 0 0 0 121.21875 126.77344 A 110.6117 97.479721 0 0 0 177.53125 211.63477 A 114.14724 81.317283 0 0 0 164.6543 249.00195 A 114.14724 81.317283 0 0 0 278.80273 330.32031 A 114.14724 81.317283 0 0 0 390.22461 266.41211 A 142.93658 122.22845 0 0 0 396.48438 266.67969 A 142.93658 122.22845 0 0 0 539.42188 144.45117 A 142.93658 122.22845 0 0 0 396.48438 22.222656 z "
       transform="matrix(0.26458333,0,0,0.26458333,20.579754,128.08566)"
       id="path4535" />
    <text
       xml:space="preserve"
       style="font-style:normal;font-weight:normal;font-size:10.58333302px;line-height:1.25;font-family:sans-serif;letter-spacing:0px;word-spacing:0px;fill:#000000;fill-opacity:1;stroke:none;stroke-width:0.26458332"
       x="74.568199"
       y="167.64154"
       id="text4662"><tspan
         sodipodi:role="line"
         id="tspan4660"
         x="74.568199"
         y="167.64154"
         style="stroke-width:0.26458332">SSM</tspan></text>
  </g>
</svg>
