<?xml version="1.0" encoding="UTF-8" standalone="no"?>
<!-- Created with Inkscape (http://www.inkscape.org/) -->

<svg
   xmlns:dc="http://purl.org/dc/elements/1.1/"
   xmlns:cc="http://creativecommons.org/ns#"
   xmlns:rdf="http://www.w3.org/1999/02/22-rdf-syntax-ns#"
   xmlns:svg="http://www.w3.org/2000/svg"
   xmlns="http://www.w3.org/2000/svg"
   xmlns:sodipodi="http://sodipodi.sourceforge.net/DTD/sodipodi-0.dtd"
   xmlns:inkscape="http://www.inkscape.org/namespaces/inkscape"
   width="203.39212mm"
   height="97.820641mm"
   viewBox="0 0 203.39212 97.820641"
   version="1.1"
   id="svg3724"
   sodipodi:docname="RSS5.svg"
   inkscape:version="0.92.5 (2060ec1f9f, 2020-04-08)"
   inkscape:export-filename="/home/metienne/Pictures/RSS5.png"
   inkscape:export-xdpi="96"
   inkscape:export-ydpi="96">
  <defs
     id="defs3718" />
  <sodipodi:namedview
     id="base"
     pagecolor="#ffffff"
     bordercolor="#666666"
     borderopacity="1.0"
     inkscape:pageopacity="0.0"
     inkscape:pageshadow="2"
     inkscape:zoom="0.7"
     inkscape:cx="559.41494"
     inkscape:cy="57.084755"
     inkscape:document-units="mm"
     inkscape:current-layer="layer1"
     showgrid="false"
     fit-margin-top="0"
     fit-margin-left="0"
     fit-margin-right="0"
     fit-margin-bottom="0"
     inkscape:window-width="1848"
     inkscape:window-height="1015"
     inkscape:window-x="72"
     inkscape:window-y="28"
     inkscape:window-maximized="1" />
  <metadata
     id="metadata3721">
    <rdf:RDF>
      <cc:Work
         rdf:about="">
        <dc:format>image/svg+xml</dc:format>
        <dc:type
           rdf:resource="http://purl.org/dc/dcmitype/StillImage" />
        <dc:title></dc:title>
      </cc:Work>
    </rdf:RDF>
  </metadata>
  <g
     inkscape:label="Layer 1"
     inkscape:groupmode="layer"
     id="layer1"
     transform="translate(-20.579754,-128.08566)">
    <rect
       id="rect4531"
       width="203.39212"
       height="97.820641"
       x="20.181316"
       y="127.85909"
       style="opacity:0.075;fill:#ff0000;fill-opacity:0.43867924;stroke-width:0.32077962" />
    <text
       xml:space="preserve"
       style="font-style:normal;font-weight:normal;font-size:10.58333302px;line-height:1.25;font-family:sans-serif;letter-spacing:0px;word-spacing:0px;fill:#000000;fill-opacity:1;stroke:none;stroke-width:0.26458332"
       x="25.390606"
       y="220.56091"
       id="text4543"><tspan
         sodipodi:role="line"
         id="tspan4541"
         x="25.390606"
         y="229.92468"
         style="stroke-width:0.26458332" /></text>
    <text
       xml:space="preserve"
       style="font-style:normal;font-weight:normal;font-size:10.58333302px;line-height:1.25;font-family:sans-serif;letter-spacing:0px;word-spacing:0px;fill:#000000;fill-opacity:1;stroke:none;stroke-width:0.26458332"
       x="55.324787"
       y="162.02888"
       id="text4685"><tspan
         sodipodi:role="line"
         id="tspan4683"
         x="55.324787"
         y="162.02888"
         style="font-size:9.17222214px;stroke-width:0.26458332">Fact1</tspan></text>
    <text
       xml:space="preserve"
       style="font-style:normal;font-weight:normal;font-size:10.58333302px;line-height:1.25;font-family:sans-serif;letter-spacing:0px;word-spacing:0px;fill:#000000;fill-opacity:1;stroke:none;stroke-width:0.26458332"
       x="130.16026"
       y="163.36523"
       id="text4689"><tspan
         sodipodi:role="line"
         id="tspan4687"
         x="130.16026"
         y="163.36523"
         style="stroke-width:0.26458332">Fact2</tspan></text>
    <text
       xml:space="preserve"
       style="font-style:normal;font-weight:normal;font-size:10.58333302px;line-height:1.25;font-family:sans-serif;letter-spacing:0px;word-spacing:0px;fill:#000000;fill-opacity:1;stroke:none;stroke-width:0.26458332"
       x="78.57724"
       y="205.32655"
       id="text4693"><tspan
         sodipodi:role="line"
         id="tspan4691"
         x="78.57724"
         y="205.32655"
         style="stroke-width:0.26458332">Int</tspan></text>
    <path
       inkscape:connector-curvature="0"
       style="opacity:0.36199999;fill:#5bd25e;fill-opacity:1;stroke-width:0.26458332"
       d="m 67.390331,183.88948 a 30.201457,21.515198 0 0 0 -3.41271,9.89449 30.201457,21.515198 0 0 0 30.201772,21.51548 30.201457,21.515198 0 0 0 29.454017,-16.88218 37.818637,32.339611 0 0 1 -29.067992,-13.55627 29.266012,25.791509 0 0 1 -12.54704,2.50889 29.266012,25.791509 0 0 1 -14.628047,-3.48041 z"
       id="path4539" />
    <text
       xml:space="preserve"
       style="font-style:normal;font-weight:normal;font-size:10.58333302px;line-height:1.25;font-family:sans-serif;letter-spacing:0px;word-spacing:0px;fill:#000000;fill-opacity:1;stroke:none;stroke-width:0.26458332"
       x="179.07057"
       y="144.12183"
       id="text91"><tspan
         sodipodi:role="line"
         id="tspan89"
         x="179.07057"
         y="144.12183"
         style="stroke-width:0.26458332">Type 2</tspan></text>
    <path
       style="opacity:0.36199999;fill:#f2ad00;fill-opacity:1;stroke-width:0.99999994"
       d="M 395.58594 21.697266 A 142.93658 122.22845 0 0 0 302.24414 51.554688 A 110.6117 97.47972 0 0 1 303.08398 52.125 A 142.93658 122.22845 0 0 0 303.02148 52.171875 A 110.6117 97.479719 0 0 1 316.60742 64.306641 A 110.6117 97.47972 0 0 1 341.9375 126.26953 A 110.6117 97.47972 0 0 1 278.82422 214.16992 A 142.93658 122.22845 0 0 0 395.58594 266.1543 A 142.93658 122.22845 0 0 0 538.52344 143.92578 A 142.93658 122.22845 0 0 0 395.58594 21.697266 z "
       transform="matrix(0.26458333,0,0,0.26458333,20.579754,128.08566)"
       id="path4537-2" />
    <path
       inkscape:connector-curvature="0"
       style="opacity:0.36199999;fill:#0066d6;fill-opacity:1;stroke-width:0.26458332"
       d="m 81.997708,135.81231 a 29.266012,25.791509 0 0 0 -29.26591,25.79171 29.266012,25.791509 0 0 0 29.26591,25.79119 29.266012,25.791509 0 0 0 12.56771,-2.53421 37.818637,32.339611 0 0 1 -6.92516,-18.58543 37.818637,32.339611 0 0 1 13.121682,-24.43985 29.266012,25.791509 0 0 0 -18.764232,-6.02341 z"
       id="path4535-6-3-6" />
  </g>
</svg>
