<?xml version="1.0" encoding="UTF-8" standalone="no"?>
<!-- Created with Inkscape (http://www.inkscape.org/) -->

<svg
   xmlns:dc="http://purl.org/dc/elements/1.1/"
   xmlns:cc="http://creativecommons.org/ns#"
   xmlns:rdf="http://www.w3.org/1999/02/22-rdf-syntax-ns#"
   xmlns:svg="http://www.w3.org/2000/svg"
   xmlns="http://www.w3.org/2000/svg"
   xmlns:sodipodi="http://sodipodi.sourceforge.net/DTD/sodipodi-0.dtd"
   xmlns:inkscape="http://www.inkscape.org/namespaces/inkscape"
   width="216.20239mm"
   height="191.25594mm"
   viewBox="0 0 216.20239 191.25594"
   version="1.1"
   id="svg4622"
   inkscape:version="0.92.3 (2405546, 2018-03-11)"
   sodipodi:docname="V1.svg">
  <defs
     id="defs4616" />
  <sodipodi:namedview
     id="base"
     pagecolor="#ffffff"
     bordercolor="#666666"
     borderopacity="1.0"
     inkscape:pageopacity="0.0"
     inkscape:pageshadow="2"
     inkscape:zoom="0.35"
     inkscape:cx="44.714425"
     inkscape:cy="-27.509099"
     inkscape:document-units="mm"
     inkscape:current-layer="layer1"
     showgrid="false"
     inkscape:window-width="1315"
     inkscape:window-height="713"
     inkscape:window-x="51"
     inkscape:window-y="27"
     inkscape:window-maximized="1"
     fit-margin-top="0"
     fit-margin-left="0"
     fit-margin-right="0"
     fit-margin-bottom="0"
     showguides="false"
     inkscape:guide-bbox="true">
    <sodipodi:guide
       position="-100.54167,100.54167"
       orientation="0,1"
       id="guide1050"
       inkscape:locked="false" />
  </sodipodi:namedview>
  <metadata
     id="metadata4619">
    <rdf:RDF>
      <cc:Work
         rdf:about="">
        <dc:format>image/svg+xml</dc:format>
        <dc:type
           rdf:resource="http://purl.org/dc/dcmitype/StillImage" />
        <dc:title></dc:title>
      </cc:Work>
    </rdf:RDF>
  </metadata>
  <g
     inkscape:label="Layer 1"
     inkscape:groupmode="layer"
     id="layer1"
     style="display:inline"
     transform="translate(2.6458292,-0.6666649)">
    <path
       style="display:inline;fill:#23df6a;fill-opacity:0.50248754;stroke-width:0.99999994;stroke-miterlimit:4;stroke-dasharray:0.99999999, 2.00000001;stroke-dashoffset:0"
       d="M 2.8574219 4.2851562 L 2.8574219 727.14258 L 820 727.14258 L 820 4.2851562 L 2.8574219 4.2851562 z M 501.42773 107.21875 A 152.78101 168.49528 0 0 1 654.20898 275.71484 A 152.78101 168.49528 0 0 1 584.29688 417.24414 A 152.78101 168.49528 0 0 1 587.06641 448.57227 A 152.78101 168.49528 0 0 1 434.28516 617.06641 A 152.78101 168.49528 0 0 1 281.50391 448.57227 A 152.78101 168.49528 0 0 1 281.85352 440.88867 A 152.781 168.49528 0 0 1 164.36133 277.14258 A 152.781 168.49528 0 0 1 317.14258 108.64844 A 152.781 168.49528 0 0 1 408.35938 142.22852 A 152.78101 168.49528 0 0 1 501.42773 107.21875 z "
       transform="matrix(0.26458333,0,0,0.26458333,-2.6458292,0.6666649)"
       id="rect150-5" />
    <g
       id="g1079"
       transform="translate(268.36309,35.529762)" />
    <text
       xml:space="preserve"
       style="font-style:normal;font-weight:normal;font-size:6.61458302px;line-height:100%;font-family:sans-serif;text-align:start;letter-spacing:0px;word-spacing:0px;writing-mode:lr-tb;text-anchor:start;fill:#000000;fill-opacity:1;stroke:none;stroke-width:0.26458332px;stroke-linecap:butt;stroke-linejoin:miter;stroke-opacity:1"
       x="10.961313"
       y="182.0952"
       id="text1099"><tspan
         sodipodi:role="line"
         id="tspan1097"
         x="10.961313"
         y="182.0952"
         style="stroke-width:0.26458332px;font-size:9.87777778px">RSS1</tspan></text>
    <rect
       style="fill:#23dfd1;fill-opacity:0.50248754;stroke-width:0.26458332;stroke-miterlimit:4;stroke-dasharray:0.26458333, 0.52916666000000001;stroke-dashoffset:0"
       id="rect1101"
       width="216.2023"
       height="191.25603"
       x="-1.8898031"
       y="1.8004458" />
  </g>
</svg>
