<?xml version="1.0" encoding="UTF-8" standalone="no"?>
<!-- Created with Inkscape (http://www.inkscape.org/) -->

<svg
   xmlns:dc="http://purl.org/dc/elements/1.1/"
   xmlns:cc="http://creativecommons.org/ns#"
   xmlns:rdf="http://www.w3.org/1999/02/22-rdf-syntax-ns#"
   xmlns:svg="http://www.w3.org/2000/svg"
   xmlns="http://www.w3.org/2000/svg"
   xmlns:sodipodi="http://sodipodi.sourceforge.net/DTD/sodipodi-0.dtd"
   xmlns:inkscape="http://www.inkscape.org/namespaces/inkscape"
   width="216.20239mm"
   height="191.25594mm"
   viewBox="0 0 216.20239 191.25594"
   version="1.1"
   id="svg4622"
   inkscape:version="0.92.3 (2405546, 2018-03-11)"
   sodipodi:docname="V5.svg"
   inkscape:export-filename="/home/metienne/git/courses/linearmodel/SS_type.png"
   inkscape:export-xdpi="21"
   inkscape:export-ydpi="21">
  <defs
     id="defs4616" />
  <sodipodi:namedview
     id="base"
     pagecolor="#ffffff"
     bordercolor="#666666"
     borderopacity="1.0"
     inkscape:pageopacity="0.0"
     inkscape:pageshadow="2"
     inkscape:zoom="0.35"
     inkscape:cx="178.04773"
     inkscape:cy="757.32587"
     inkscape:document-units="mm"
     inkscape:current-layer="g1079"
     showgrid="false"
     inkscape:window-width="1315"
     inkscape:window-height="713"
     inkscape:window-x="51"
     inkscape:window-y="27"
     inkscape:window-maximized="1"
     fit-margin-top="0"
     fit-margin-left="0"
     fit-margin-right="0"
     fit-margin-bottom="0"
     showguides="false"
     inkscape:guide-bbox="true">
    <sodipodi:guide
       position="-100.54167,100.54167"
       orientation="0,1"
       id="guide1050"
       inkscape:locked="false" />
  </sodipodi:namedview>
  <metadata
     id="metadata4619">
    <rdf:RDF>
      <cc:Work
         rdf:about="">
        <dc:format>image/svg+xml</dc:format>
        <dc:type
           rdf:resource="http://purl.org/dc/dcmitype/StillImage" />
        <dc:title></dc:title>
      </cc:Work>
    </rdf:RDF>
  </metadata>
  <g
     inkscape:label="Layer 1"
     inkscape:groupmode="layer"
     id="layer1"
     style="display:inline"
     transform="translate(2.6458292,-0.6666649)">
    <g
       id="g1079"
       transform="translate(268.36309,35.529762)">
      <path
         style="opacity:1;fill:#3ca755;fill-opacity:0.64676621;stroke:#3c1eb4;stroke-width:1.15229785;stroke-miterlimit:4;stroke-dasharray:1.15229786, 2.3045958;stroke-dashoffset:0;stroke-opacity:1"
         d="M 410.06445 410.50391 A 152.781 168.49528 0 0 1 317.14258 445.63867 A 152.781 168.49528 0 0 1 281.85352 440.88867 A 152.78101 168.49528 0 0 0 281.50391 448.57227 A 152.78101 168.49528 0 0 0 434.28516 617.06641 A 152.78101 168.49528 0 0 0 587.06641 448.57227 A 152.78101 168.49528 0 0 0 584.2832 417.25586 A 152.78101 168.49528 0 0 1 501.42773 444.20898 A 152.78101 168.49528 0 0 1 410.06445 410.50391 z "
         transform="matrix(0.26458333,0,0,0.26458333,-271.00892,-34.863097)"
         id="path5167-3" />
      <path
         style="display:inline;opacity:1;fill:#3caeb4;fill-opacity:0.79104477;stroke:#3c1eb4;stroke-width:0.3048788;stroke-miterlimit:4;stroke-dasharray:0.3048788, 0.60975763;stroke-dashoffset:0;stroke-opacity:1"
         d="m -186.68798,-6.4064317 a 40.423308,44.581042 0 0 0 -40.42285,44.5812527 40.423308,44.581042 0 0 0 40.42285,44.581257 40.423308,44.581042 0 0 0 25.8284,-10.338385 40.423308,44.581042 0 0 1 -16.35869,-35.754923 40.423308,44.581042 0 0 1 14.59498,-34.2428717 40.423308,44.581042 0 0 0 -24.06469,-8.82633 z"
         id="path5167-5"
         inkscape:connector-curvature="0" />
      <path
         style="display:inline;opacity:1;fill:#a079b4;fill-opacity:0.63184084;stroke:#3c1eb4;stroke-width:1.15229785;stroke-miterlimit:4;stroke-dasharray:1.15229786, 2.30459592;stroke-dashoffset:0;stroke-opacity:1"
         d="M 502.85742 105.79102 A 152.78101 168.49528 0 0 0 409.64648 140.91211 A 152.78101 168.49528 0 0 1 472.78125 277.14258 A 152.78101 168.49528 0 0 1 413.21094 410.51758 A 152.78101 168.49528 0 0 0 502.85742 442.78125 A 152.78101 168.49528 0 0 0 655.63867 274.28516 A 152.78101 168.49528 0 0 0 502.85742 105.79102 z "
         transform="matrix(0.26458333,0,0,0.26458333,-271.00892,-34.863097)"
         id="path5167-3-6-6-2" />
    </g>
    <text
       xml:space="preserve"
       style="font-style:normal;font-weight:normal;font-size:9.87777778px;line-height:100%;font-family:sans-serif;text-align:start;letter-spacing:0px;word-spacing:0px;writing-mode:lr-tb;text-anchor:start;fill:#000000;fill-opacity:1;stroke:none;stroke-width:0.26458332px;stroke-linecap:butt;stroke-linejoin:miter;stroke-opacity:1;"
       x="60.098217"
       y="48.291649"
       id="text822"><tspan
         sodipodi:role="line"
         id="tspan820"
         x="60.098217"
         y="53.317181"
         style="stroke-width:0.26458332px;font-size:9.87777778px;" /></text>
    <text
       xml:space="preserve"
       style="font-style:normal;font-weight:normal;font-size:6.61458302px;line-height:100%;font-family:sans-serif;text-align:start;letter-spacing:0px;word-spacing:0px;writing-mode:lr-tb;text-anchor:start;fill:#000000;fill-opacity:1;stroke:none;stroke-width:0.26458332px;stroke-linecap:butt;stroke-linejoin:miter;stroke-opacity:1"
       x="54.050598"
       y="58.874981"
       id="text826"><tspan
         sodipodi:role="line"
         id="tspan824"
         x="54.050598"
         y="58.874981"
         style="stroke-width:0.26458332px;font-size:9.87777778px">Fact1</tspan></text>
    <text
       xml:space="preserve"
       style="font-style:normal;font-weight:normal;font-size:9.8777771px;line-height:100%;font-family:sans-serif;text-align:start;letter-spacing:0px;word-spacing:0px;writing-mode:lr-tb;text-anchor:start;fill:#000000;fill-opacity:1;stroke:none;stroke-width:0.26458332px;stroke-linecap:butt;stroke-linejoin:miter;stroke-opacity:1"
       x="129.64583"
       y="52.071407"
       id="text830"><tspan
         sodipodi:role="line"
         id="tspan828"
         x="129.64583"
         y="52.071407"
         style="stroke-width:0.26458332px">Fact2</tspan></text>
    <text
       xml:space="preserve"
       style="font-style:normal;font-weight:normal;font-size:9.8777771px;line-height:100%;font-family:sans-serif;text-align:start;letter-spacing:0px;word-spacing:0px;writing-mode:lr-tb;text-anchor:start;fill:#000000;fill-opacity:1;stroke:none;stroke-width:0.26458332px;stroke-linecap:butt;stroke-linejoin:miter;stroke-opacity:1"
       x="106.96726"
       y="150.34521"
       id="text834"><tspan
         sodipodi:role="line"
         id="tspan832"
         x="106.96726"
         y="150.34521"
         style="stroke-width:0.26458332px">Int</tspan></text>
  </g>
</svg>
